# xmcd CD database file
#
# Track frame offsets:
#	150
#	14310
#	27013
#	47342
#	56217
#	72093
#	88588
#	102000
#	116143
#	127299
#	137559
#	149874
#	165696
#	179665
#	193542
#	203101
#	216876
#	229198
#	245542
#	262090
#	276276
#	289852
#	302112
#	319136
#
# Disc length: 4476 seconds
#
# Revision: 0
# Processed by: cddbd v1.4PL0 Copyright (c) Steve Scherf et al.
# Submitted via: CDex 1.40Release
#
DISCID=78117a18
DTITLE=Bob Wills - California Airshots
DYEAR=1945
DGENRE=Country
TTITLE0=Bob Wills - Jessie - fiddle inst.
TTITLE1=Bob Wills - No Wonder
TTITLE2=Bob Wills - 31st Street Blues
TTITLE3=Bob Wills - Sister Lucy Lee
TTITLE4=Bob Wills - Seven Come Eleven
TTITLE5=Bob Wills - Basin Street Blues
TTITLE6=Bob Wills - Honeysuckle Rose
TTITLE7=Bob wills - Seven Miles Out of Town
TTITLE8=Bob Wills - Darktown Strutters Ball
TTITLE9=Bob Wills - Miss Molly
TTITLE10=Bob Wills - Don't Cry Baby
TTITLE11=Bob Wills - Take Me Back to Tulsa
TTITLE12=Bob Wills - Crafton Blues
TTITLE13=Bob Wills - Sonny Boy
TTITLE14=Bob Wills - Oklahoma Hills
TTITLE15=Bob Wills - I Ain't Got Nothing But the Blues
TTITLE16=Bob Wills - Rubber Dolly
TTITLE17=Bob Wills - It Makes No Difference Now
TTITLE18=Bob Wills - San Antonio Rose and G.I. Wish
TTITLE19=Bob Wills - Milk Cow Blues
TTITLE20=Bob Wills - I Betcha My Heart I Love You
TTITLE21=Bob Wills - I Walk Alone
TTITLE22=Bob Wills - Twinkle Twinkle Little Star
TTITLE23=Bob Wills - Cherokee Maiden
EXTD=YEAR: 1945 ID3G: 2
EXTT0=
EXTT1=
EXTT2=
EXTT3=
EXTT4=
EXTT5=
EXTT6=
EXTT7=
EXTT8=
EXTT9=
EXTT10=
EXTT11=
EXTT12=
EXTT13=
EXTT14=
EXTT15=
EXTT16=
EXTT17=
EXTT18=
EXTT19=
EXTT20=
EXTT21=
EXTT22=
EXTT23=
PLAYORDER=
